<svg xmlns="http://www.w3.org/2000/svg" viewBox="0 0 192.756 192.756" role="img" aria-labelledby="title">
  <title id="title">QUT</title>
  <g fill="#ffffff" fill-rule="evenodd" clip-rule="evenodd">
    <path d="m64.848 63.854-4.747-4.88H42.767L72.3 90.366h18.192L77.041 76.471l.002-.008c2.091-3.245 3.486-6.665 4.372-10.674 3.945-17.874-7.083-35.62-24.629-39.638-17.545-4.019-34.969 7.213-38.913 25.086-3.943 17.873 7.083 35.621 24.629 39.638 7.871 1.803 15.188.651 21.914-2.794l.029-.012-12.241-13.38.014-.008c-1.094.228-1.839.319-3.001.319-9.294 0-16.828-7.675-16.828-17.141 0-9.465 7.534-17.141 16.828-17.141 9.292 0 16.827 7.676 16.827 17.141 0 1.867-.398 4.43-1.169 6.027l-.027-.032z"/>
    <path d="m85.221 26.789.026 46.245s3.532 18.314 24.184 18.314c20.654 0 24.613-18.422 24.613-18.422V46l-15.84-16.895v42.077s-.963 5.124-8.773 5.124-7.92-5.234-7.92-5.234V26.708l-16.29.081z"/>
    <path d="m119.812 25.727 15.088 15.914h10.916v48.725h16.479V41.641h12.734V25.836l-55.217-.109z"/>
  </g>
</svg>
